HIERARCHY
ROOT Hips
{
  OFFSET 5.80788e-005 67.184 3.4734
  CHANNELS 6 Xposition Yposition Zposition Zrotation Xrotation Yrotation
  JOINT Chest
  {
    OFFSET 0 8.7983 -4.7612
    CHANNELS 3 Zrotation Xrotation Yrotation
    JOINT Chest2
    {
      OFFSET 0 8.0291 0.4195
      CHANNELS 3 Zrotation Xrotation Yrotation
      JOINT Chest3
      {
        OFFSET 0 9.9351 -2.2114
        CHANNELS 3 Zrotation Xrotation Yrotation
        JOINT Neck
        {
          OFFSET 0 22.3885 -0.4656
          CHANNELS 3 Zrotation Xrotation Yrotation
          JOINT Head
          {
            OFFSET -0.0001 12.643 3.4389
            CHANNELS 3 Zrotation Xrotation Yrotation
            End Site
            {
              OFFSET 0.0001 17.6655 0.5274
            }
          }
        }
        JOINT LeftCollar
        {
          OFFSET 2.2603 21.606 7.4023
          CHANNELS 3 Zrotation Xrotation Yrotation
          JOINT LeftShoulder
          {
            OFFSET 13.5163 -1.1332 -5.0146
            CHANNELS 3 Zrotation Xrotation Yrotation
            JOINT LeftElbow
            {
              OFFSET -0.0995 -28.05 -0.2431
              CHANNELS 3 Zrotation Xrotation Yrotation
              JOINT LeftWrist
              {
                OFFSET 0.0679 -23.3996 -0.1402
                CHANNELS 3 Zrotation Xrotation Yrotation
                JOINT LeftFinger1
                {
                  OFFSET 0.7932 -9.069 2.5189
                  CHANNELS 3 Zrotation Xrotation Yrotation
                  JOINT LeftFinger11
                  {
                    OFFSET -0.8272 -3.3923 0.5977
                    CHANNELS 3 Zrotation Xrotation Yrotation
                    JOINT LeftFinger12
                    {
                      OFFSET -0.5649 -2.3158 0.4082
                      CHANNELS 3 Zrotation Xrotation Yrotation
                      End Site
                      {
                        OFFSET -0.4919 -1.6479 0.2673
                      }
                    }
                  }
                }
                JOINT LeftFinger2
                {
                  OFFSET 0.9159 -9.2044 0.2193
                  CHANNELS 3 Zrotation Xrotation Yrotation
                  JOINT LeftFinger21
                  {
                    OFFSET 0.0117 -4.1944 -0.0248
                    CHANNELS 3 Zrotation Xrotation Yrotation
                    JOINT LeftFinger22
                    {
                      OFFSET 0.0071 -2.3249 -0.0142
                      CHANNELS 3 Zrotation Xrotation Yrotation
                      End Site
                      {
                        OFFSET -0.1475 -2.0882 0.0028
                      }
                    }
                  }
                }
                JOINT LeftFinger3
                {
                  OFFSET 0.6113 -8.7231 -2.0637
                  CHANNELS 3 Zrotation Xrotation Yrotation
                  JOINT LeftFinger31
                  {
                    OFFSET -0.1927 -3.8059 -0.2383
                    CHANNELS 3 Zrotation Xrotation Yrotation
                    JOINT LeftFinger32
                    {
                      OFFSET -0.1091 -2.1688 -0.1362
                      CHANNELS 3 Zrotation Xrotation Yrotation
                      End Site
                      {
                        OFFSET -0.2358 -1.9176 -0.0906
                      }
                    }
                  }
                }
                JOINT LeftFinger4
                {
                  OFFSET -0.6151 -8.0947 -3.5641
                  CHANNELS 3 Zrotation Xrotation Yrotation
                  JOINT LeftFinger41
                  {
                    OFFSET -0.4882 -2.341 -0.6462
                    CHANNELS 3 Zrotation Xrotation Yrotation
                    JOINT LeftFinger42
                    {
                      OFFSET -0.3575 -1.7167 -0.4742
                      CHANNELS 3 Zrotation Xrotation Yrotation
                      End Site
                      {
                        OFFSET -0.4187 -1.5237 -0.3496
                      }
                    }
                  }
                }
                JOINT LeftFinger0
                {
                  OFFSET -1.42 -1.8761 1.4223
                  CHANNELS 3 Zrotation Xrotation Yrotation
                  JOINT LeftFinger01
                  {
                    OFFSET -1.1471 -3.4929 2.6334
                    CHANNELS 3 Zrotation Xrotation Yrotation
                    JOINT LeftFinger02
                    {
                      OFFSET -0.823 -2.3 1.6571
                      CHANNELS 3 Zrotation Xrotation Yrotation
                      End Site
                      {
                        OFFSET -0.5822 -1.6914 1.1582
                      }
                    }
                  }
                }
              }
            }
          }
        }
        JOINT RightCollar
        {
          OFFSET -2.2603 21.606 7.4023
          CHANNELS 3 Zrotation Xrotation Yrotation
          JOINT RightShoulder
          {
            OFFSET -13.5187 -1.1334 -5.0155
            CHANNELS 3 Zrotation Xrotation Yrotation
            JOINT RightElbow
            {
              OFFSET 0.0994 -28.0499 -0.2431
              CHANNELS 3 Zrotation Xrotation Yrotation
              JOINT RightWrist
              {
                OFFSET -0.0679 -23.3996 -0.1402
                CHANNELS 3 Zrotation Xrotation Yrotation
                JOINT RightFinger1
                {
                  OFFSET -0.7932 -9.0691 2.5189
                  CHANNELS 3 Zrotation Xrotation Yrotation
                  JOINT RightFinger11
                  {
                    OFFSET 0.8272 -3.3923 0.5977
                    CHANNELS 3 Zrotation Xrotation Yrotation
                    JOINT RightFinger12
                    {
                      OFFSET 0.565 -2.3158 0.4082
                      CHANNELS 3 Zrotation Xrotation Yrotation
                      End Site
                      {
                        OFFSET 0.4919 -1.6479 0.2673
                      }
                    }
                  }
                }
                JOINT RightFinger2
                {
                  OFFSET -0.916 -9.2044 0.2193
                  CHANNELS 3 Zrotation Xrotation Yrotation
                  JOINT RightFinger21
                  {
                    OFFSET -0.0117 -4.1944 -0.0248
                    CHANNELS 3 Zrotation Xrotation Yrotation
                    JOINT RightFinger22
                    {
                      OFFSET -0.0071 -2.3249 -0.0142
                      CHANNELS 3 Zrotation Xrotation Yrotation
                      End Site
                      {
                        OFFSET 0.1475 -2.0882 0.0028
                      }
                    }
                  }
                }
                JOINT RightFinger3
                {
                  OFFSET -0.6113 -8.7231 -2.0637
                  CHANNELS 3 Zrotation Xrotation Yrotation
                  JOINT RightFinger31
                  {
                    OFFSET 0.1927 -3.8059 -0.2383
                    CHANNELS 3 Zrotation Xrotation Yrotation
                    JOINT RightFinger32
                    {
                      OFFSET 0.1091 -2.1688 -0.1362
                      CHANNELS 3 Zrotation Xrotation Yrotation
                      End Site
                      {
                        OFFSET 0.2358 -1.9176 -0.0906
                      }
                    }
                  }
                }
                JOINT RightFinger4
                {
                  OFFSET 0.6151 -8.0947 -3.564
                  CHANNELS 3 Zrotation Xrotation Yrotation
                  JOINT RightFinger41
                  {
                    OFFSET 0.4882 -2.341 -0.6462
                    CHANNELS 3 Zrotation Xrotation Yrotation
                    JOINT RightFinger42
                    {
                      OFFSET 0.3574 -1.7166 -0.4742
                      CHANNELS 3 Zrotation Xrotation Yrotation
                      End Site
                      {
                        OFFSET 0.4187 -1.5237 -0.3496
                      }
                    }
                  }
                }
                JOINT RightFinger0
                {
                  OFFSET 1.4199 -1.8761 1.4221
                  CHANNELS 3 Zrotation Xrotation Yrotation
                  JOINT RightFinger01
                  {
                    OFFSET 1.1472 -3.4929 2.6336
                    CHANNELS 3 Zrotation Xrotation Yrotation
                    JOINT RightFinger02
                    {
                      OFFSET 0.8229 -2.3 1.6571
                      CHANNELS 3 Zrotation Xrotation Yrotation
                      End Site
                      {
                        OFFSET 0.5822 -1.6914 1.1582
                      }
                    }
                  }
                }
              }
            }
          }
        }
      }
    }
  }
  JOINT RightHip
  {
    OFFSET -9.412 3.9771 -0.7758
    CHANNELS 3 Zrotation Xrotation Yrotation
    JOINT RightKnee
    {
      OFFSET -0.7531 -40.938 0
      CHANNELS 3 Zrotation Xrotation Yrotation
      JOINT RightAnkle
      {
        OFFSET 0 -40.1986 0
        CHANNELS 3 Zrotation Xrotation Yrotation
        JOINT RightToe
        {
          OFFSET 0 -4.4182 9.239
          CHANNELS 3 Zrotation Xrotation Yrotation
          End Site
          {
            OFFSET 0 0 6.1981
          }
        }
      }
    }
  }
  JOINT LeftHip
  {
    OFFSET 9.4119 3.9773 -0.7758
    CHANNELS 3 Zrotation Xrotation Yrotation
    JOINT LeftKnee
    {
      OFFSET 0.7532 -40.9383 0
      CHANNELS 3 Zrotation Xrotation Yrotation
      JOINT LeftAnkle
      {
        OFFSET 0 -40.1986 0
        CHANNELS 3 Zrotation Xrotation Yrotation
        JOINT LeftToe
        {
          OFFSET 0 -4.4182 9.239
          CHANNELS 3 Zrotation Xrotation Yrotation
          End Site
          {
            OFFSET 0 0 6.1981
          }
        }
      }
    }
  }
}
MOTION
Frames:	4
Frame Time:	0.0333333
5.80788e-005 67.184 3.4734 0 0 -0 0 0 -0 0 0 -0 0 0 -0 0 0 -0 0 0 -0 0 0 -12.5014 88.1196 14.2451 10.6914 -0.00160068 -0.00239207 0.000740045 -8.4365e-005 7.00714e-005 -9.52055e-007 9.93923e-017 -1.98785e-016 -1.59028e-015 9.93923e-017 -5.96354e-016 -1.59028e-015 -9.93923e-017 -5.96354e-016 -1.59028e-015 9.93923e-017 -1.98785e-016 -1.59028e-015 -0.0128176 0.00232552 8.52707e-005 9.93923e-017 5.96354e-016 -0 9.93923e-017 -1.98785e-016 -1.59028e-015 -0.0160551 0.00299681 0.000857156 -2.48481e-016 0 3.18055e-015 9.93923e-017 -1.98785e-016 -1.59028e-015 -0.0125865 0.0031206 0.00282719 0 1.98785e-016 -0 9.93923e-017 -1.98785e-016 -1.59028e-015 9.93923e-017 -5.96354e-016 -1.59028e-015 -9.93923e-017 -5.96354e-016 -1.59028e-015 -0.865644 0.16582 7.03859 -88.0329 10.2057 -10.5567 0.0015593 -0.00248883 -0.000788628 7.87605e-005 4.10553e-005 1.24965e-005 -3.97569e-016 -7.95139e-016 3.18055e-015 -1.98785e-016 -3.97569e-016 3.18055e-015 -1.98785e-016 0 3.18055e-015 -3.97569e-016 -7.95139e-016 3.18055e-015 0.0129473 0.00231697 -8.70038e-005 9.93923e-017 -7.95139e-016 1.59028e-015 -3.97569e-016 -7.95139e-016 3.18055e-015 0.0163314 0.00303369 -0.000872333 3.97569e-016 7.95139e-016 -3.18055e-015 -3.97569e-016 -7.95139e-016 3.18055e-015 0.0145763 0.00367772 -0.00326275 9.93923e-017 -3.97569e-016 -0 -3.97569e-016 -7.95139e-016 3.18055e-015 -1.98785e-016 -3.97569e-016 3.18055e-015 -1.98785e-016 0 3.18055e-015 3.42485 1.36937 -0.0640303 0.000136572 0.69354 0.00145564 -3.42573 -2.06297 -0.0607933 -3.19502e-024 0 -1.48106e-024 -3.42498 1.36123 0.0639712 -6.769e-005 0.712612 -0.0012277 3.42582 -2.07388 0.0612819 2.55305e-023 0 -2.31416e-026 
1.2105 36.5344 -2.36618 1.48025e-007 20.0835 -7.55258e-009 0.19466 -2.5344 -0.173592 0.382184 -5.06935 -0.339052 0.382185 -5.06935 -0.339052 -4.84463e-006 -0.275454 4.31619e-006 1.21426e-016 -0.405559 -3.97579e-016 -7.75848 7.60878 -35.5576 47.4561 30.0225 23.7479 -67.5438 -33.7627 -44.8313 28.9017 -7.26956 16.8557 -1.20191e-006 -1.85788e-006 -2.6366e-006 -2.38542e-015 9.54166e-015 -5.56597e-015 -4.77083e-015 9.54166e-015 -2.38542e-015 -1.20191e-006 -1.85788e-006 -2.6366e-006 -0.0127982 0.00232542 8.53945e-005 -1.44557e-006 2.40159e-006 -2.81949e-006 -1.20191e-006 -1.85788e-006 -2.6366e-006 -0.015982 0.00297561 0.000852282 -4.81479e-007 2.40671e-006 -1.78548e-006 -1.20191e-006 -1.85788e-006 -2.6366e-006 -0.0125691 0.00311503 0.00282854 -5.61119e-007 -2.95396e-008 -6.28418e-007 -1.20191e-006 -1.85788e-006 -2.6366e-006 -2.38542e-015 9.54166e-015 -5.56597e-015 -4.77083e-015 9.54166e-015 -2.38542e-015 6.89932 7.41978 30.2102 -49.0017 27.2975 -19.5195 67.3843 -34.1428 45.2296 -28.5988 -6.82247 -17.5245 2.38542e-015 0 2.38542e-015 2.38542e-015 -6.36111e-015 -2.38542e-015 3.18055e-015 -6.36111e-015 7.95139e-016 2.38542e-015 0 2.38542e-015 0.0129444 0.00231576 -8.42422e-005 2.38542e-015 0 1.59028e-015 2.38542e-015 0 2.38542e-015 0.0163044 0.00302624 -0.000870668 2.38542e-015 0 -2.38542e-015 2.38542e-015 0 2.38542e-015 0.0145821 0.00367837 -0.00325975 -1.76556e-031 3.18055e-015 3.18055e-015 2.38542e-015 0 2.38542e-015 2.38542e-015 -6.36111e-015 -2.38542e-015 3.18055e-015 -6.36111e-015 7.95139e-016 -4.11731 -24.9504 -13.2353 -12.0666 81.7741 10.5881 8.56264 30.9202 -16.2442 2.20058e-007 -9.47497e-007 -3.40835e-006 4.15755 -25.3196 13.2406 12.103 81.8669 -10.5974 -8.46013 30.8462 16.2357 1.40103e-007 -1.15818e-006 -5.13978e-007 
1.75541 23.0981 -4.83846 -7.58881e-008 28.6955 1.93783e-007 0.287767 -3.50797 -0.250501 0.561716 -7.01712 -0.484675 0.561717 -7.01711 -0.484676 -6.42014e-006 -0.439735 5.46099e-006 -4.61264e-007 -0.805261 1.20357e-007 -9.18185 9.7285 -46.3116 27.7585 35.4944 29.524 -92.4771 -52.3928 -59.8653 42.2954 -10.2272 25.2391 1.26429e-007 1.11509e-006 1.16469e-006 9.44006e-006 -9.29577e-007 3.06297e-006 5.06312e-006 -4.46811e-006 -3.17043e-006 1.26429e-007 1.11509e-006 1.16469e-006 -0.0128009 0.00233531 8.80074e-005 -1.59028e-015 1.27222e-014 -2.38542e-015 1.26429e-007 1.11509e-006 1.16469e-006 -0.0160681 0.002994 0.000861794 7.32457e-006 -2.83096e-006 3.54312e-007 1.26429e-007 1.11509e-006 1.16469e-006 -0.012591 0.00312688 0.0028283 1.03353e-006 -1.51973e-005 5.35934e-006 1.26429e-007 1.11509e-006 1.16469e-006 9.44006e-006 -9.29577e-007 3.06297e-006 5.06312e-006 -4.46811e-006 -3.17043e-006 8.31398 9.38563 40.9612 -30.6266 34.1201 -23.5367 92.4333 -52.706 59.9143 -41.7342 -9.52445 -26.1543 -4.41391e-031 1.59028e-014 1.59028e-015 1.59028e-015 0 1.59028e-015 2.64834e-031 -3.18055e-015 4.77083e-015 -4.41391e-031 1.59028e-014 1.59028e-015 0.0129573 0.00231877 -8.54228e-005 -1.59028e-015 -1.27222e-014 6.36111e-015 -4.41391e-031 1.59028e-014 1.59028e-015 0.0163393 0.00304339 -0.000863938 -3.18055e-015 6.36111e-015 3.18055e-015 -4.41391e-031 1.59028e-014 1.59028e-015 0.0145838 0.00368688 -0.00325307 -1.59028e-015 3.18055e-015 -4.77083e-015 -4.41391e-031 1.59028e-014 1.59028e-015 1.59028e-015 0 1.59028e-015 2.64834e-031 -3.18055e-015 4.77083e-015 -10.8208 -34.9619 -22.2408 -174.137 63.659 170.542 24.1689 44.2425 -30.0488 -8.34896e-015 -1.66329e-006 2.38542e-015 10.9533 -35.48 22.3146 174.244 63.5266 -170.612 -23.9818 44.1386 30.0072 7.45721e-006 9.3577e-006 5.34452e-008 
1.6343 26.0671 -3.92902 -3.05224e-008 25.8356 3.19751e-008 0.263825 -2.92216 -0.236413 0.516568 -5.84535 -0.460232 0.516569 -5.84537 -0.460232 -3.20776e-006 -0.492856 2.86944e-006 5.43594e-007 -1.19922 3.19136e-007 -8.63147 8.70167 -44.1619 31.9249 34.4159 28.3883 -87.7591 -47.9154 -57.1765 39.5592 -9.8925 23.4732 -8.82781e-032 6.36111e-015 7.95139e-016 7.95139e-016 6.36111e-015 2.38542e-015 1.59028e-015 1.27222e-014 -0 -8.82781e-032 6.36111e-015 7.95139e-016 -0.0128145 0.00234216 8.24219e-005 -7.95139e-016 6.36111e-015 -1.19271e-015 -8.82781e-032 6.36111e-015 7.95139e-016 -0.0160195 0.00299776 0.000856247 1.59028e-015 1.27222e-014 -2.78299e-015 -8.82781e-032 6.36111e-015 7.95139e-016 -0.0126133 0.00312925 0.0028351 4.09818e-006 -1.51316e-006 -6.18889e-006 -8.82781e-032 6.36111e-015 7.95139e-016 7.95139e-016 6.36111e-015 2.38542e-015 1.59028e-015 1.27222e-014 -0 7.6323 8.39739 38.7435 -34.7308 32.659 -22.6589 87.5153 -48.3696 57.1997 -38.7998 -9.25428 -24.4002 -2.38542e-015 -9.54166e-015 -1.59028e-015 -7.95139e-016 9.54166e-015 -7.95139e-016 -7.95139e-016 9.54166e-015 -1.59028e-015 -2.38542e-015 -9.54166e-015 -1.59028e-015 0.0129393 0.00232006 -8.48909e-005 3.19488e-006 -5.7284e-006 -1.54616e-006 -2.38542e-015 -9.54166e-015 -1.59028e-015 0.0163134 0.00302514 -0.000879133 -2.38542e-015 0 -1.59028e-015 -2.38542e-015 -9.54166e-015 -1.59028e-015 0.0145464 0.00366818 -0.00325481 -1.59028e-015 -9.54166e-015 -1.59028e-015 -2.38542e-015 -9.54166e-015 -1.59028e-015 -7.95139e-016 9.54166e-015 -7.95139e-016 -7.95139e-016 9.54166e-015 -1.59028e-015 -8.92629 -31.459 -19.5866 -172.203 71.5872 169.267 19.7961 41.5583 -26.2381 -3.97569e-015 1.85819e-008 -1.59028e-015 9.02495 -31.9437 19.6312 172.352 71.4618 -169.381 -19.6322 41.4602 26.2077 2.91355e-006 4.0125e-006 -9.51383e-007 
